<svg width="16" height="16" viewBox="0 0 16 16" fill="none" xmlns="http://www.w3.org/2000/svg">
<mask id="mask0_504_9" style="mask-type:luminance" maskUnits="userSpaceOnUse" x="0" y="0" width="16" height="16">
<path d="M16 0H0V16H16V0Z" fill="white"/>
</mask>
<g mask="url(#mask0_504_9)">
<path d="M8.00078 16.0054L7.53411 15.6054C6.89078 15.0668 1.27344 10.2154 1.27344 6.66678C1.27344 4.88258 1.98222 3.17146 3.24383 1.90984C4.50545 0.648223 6.21658 -0.0605469 8.00078 -0.0605469C9.78498 -0.0605469 11.4961 0.648223 12.7578 1.90984C14.0194 3.17146 14.7281 4.88258 14.7281 6.66678C14.7281 10.2154 9.11078 15.0668 8.47011 15.6081L8.00078 16.0054ZM8.00078 1.39412C6.60287 1.3957 5.26267 1.95173 4.27419 2.9402C3.28572 3.92867 2.7297 5.26887 2.72811 6.66678C2.72811 8.89612 6.18411 12.4574 8.00078 14.0874C9.81744 12.4568 13.2735 8.89345 13.2735 6.66678C13.2719 5.26887 12.7159 3.92867 11.7274 2.9402C10.7389 1.95173 9.39869 1.3957 8.00078 1.39412Z" fill="#F47721"/>
<path d="M8.00065 9.33332C7.47323 9.33332 6.95766 9.17693 6.51913 8.88392C6.0806 8.5909 5.73881 8.17442 5.53697 7.68715C5.33514 7.19988 5.28233 6.66371 5.38522 6.14642C5.48812 5.62914 5.74209 5.15399 6.11503 4.78105C6.48797 4.40811 6.96313 4.15413 7.48041 4.05124C7.99769 3.94834 8.53387 4.00115 9.02114 4.20299C9.50841 4.40482 9.92489 4.74661 10.2179 5.18514C10.5109 5.62367 10.6673 6.13925 10.6673 6.66666C10.6673 7.37391 10.3863 8.05219 9.88627 8.55228C9.38617 9.05238 8.7079 9.33332 8.00065 9.33332ZM8.00065 5.33333C7.73694 5.33333 7.47916 5.41153 7.25989 5.55804C7.04063 5.70455 6.86973 5.91279 6.76881 6.15642C6.6679 6.40005 6.64149 6.66814 6.69294 6.92678C6.74438 7.18543 6.87137 7.423 7.05784 7.60947C7.24431 7.79594 7.48189 7.92293 7.74053 7.97438C7.99917 8.02583 8.26726 7.99942 8.5109 7.8985C8.75453 7.79759 8.96277 7.62669 9.10928 7.40742C9.25579 7.18816 9.33399 6.93037 9.33399 6.66666C9.33399 6.31304 9.19351 5.9739 8.94346 5.72386C8.69341 5.47381 8.35427 5.33333 8.00065 5.33333Z" fill="#F47721"/>
</g>
</svg>
